<?xml version="1.0" encoding="UTF-8" standalone="no"?>
<svg
   xmlns:dc="http://purl.org/dc/elements/1.1/"
   xmlns:cc="http://creativecommons.org/ns#"
   xmlns:rdf="http://www.w3.org/1999/02/22-rdf-syntax-ns#"
   xmlns:svg="http://www.w3.org/2000/svg"
   xmlns="http://www.w3.org/2000/svg"
   xmlns:sodipodi="http://sodipodi.sourceforge.net/DTD/sodipodi-0.dtd"
   xmlns:inkscape="http://www.inkscape.org/namespaces/inkscape"
   style="enable-background:new 0 0 512 512;"
   height="50px"
   id="Layer_1"
   version="1.1"
   viewBox="0 0 512 512"
   width="50px"
   xml:space="preserve"
   sodipodi:docname="email.svg"
   inkscape:version="1.0 (4035a4f, 2020-05-01)"><metadata
     id="metadata32"><rdf:RDF><cc:Work
         rdf:about=""><dc:format>image/svg+xml</dc:format><dc:type
           rdf:resource="http://purl.org/dc/dcmitype/StillImage" /></cc:Work></rdf:RDF></metadata><defs
     id="defs30" /><sodipodi:namedview
     inkscape:document-rotation="0"
     pagecolor="#ffffff"
     bordercolor="#666666"
     borderopacity="1"
     objecttolerance="10"
     gridtolerance="10"
     guidetolerance="10"
     inkscape:pageopacity="0"
     inkscape:pageshadow="2"
     inkscape:window-width="1920"
     inkscape:window-height="1035"
     id="namedview28"
     showgrid="false"
     inkscape:zoom="17.82"
     inkscape:cx="24.501964"
     inkscape:cy="30.457351"
     inkscape:window-x="0"
     inkscape:window-y="23"
     inkscape:window-maximized="0"
     inkscape:current-layer="Layer_1" /><g
     id="g25"><polygon
       points="448,384 448,141.8 316.9,241.6 385,319 383,321 304.1,251.4 256,288 207.9,251.4 129,321 127,319 195,241.6    64,142 64,384  "
       id="polygon21" /><polygon
       points="439.7,128 72,128 256,267.9  "
       id="polygon23" /></g><path
     transform="scale(10.24)"
     style="fill:#333333;stroke-width:0.0561167"
     d="m 6.2570146,25.692762 c 0,-11.226672 0.00472,-11.789117 0.098204,-11.708015 0.054012,0.04686 2.9012345,2.213344 6.3271604,4.814415 3.425926,2.601071 6.246884,4.744929 6.268796,4.764128 0.02191,0.0192 -0.659906,0.832029 -1.515151,1.806289 -0.855246,0.974259 -2.347894,2.674092 -3.316997,3.777405 l -1.762005,2.006023 0.116528,0.116528 0.116528,0.116528 0.186443,-0.156247 c 0.102543,-0.08593 1.836016,-1.611182 3.852163,-3.389439 2.016146,-1.778257 3.677949,-3.228785 3.692896,-3.223396 0.01495,0.0054 1.074175,0.807042 2.353841,1.781452 l 2.326665,1.771654 2.347466,-1.786979 2.347467,-1.786978 3.557775,3.140309 c 1.956777,1.727171 3.691724,3.255362 3.855438,3.395981 l 0.297661,0.255671 0.120269,-0.120269 0.120269,-0.120269 -0.1176,-0.127648 c -0.993415,-1.078298 -6.51556,-7.426985 -6.484615,-7.455216 0.03291,-0.03002 11.715411,-8.920368 12.51439,-9.523409 l 0.182379,-0.137654 V 25.694799 37.485971 H 25 6.2570146 Z"
     id="path49" /><path
     transform="scale(10.24)"
     style="fill:#333333;stroke-width:0.0561167"
     d="m 16.058732,19.318204 -8.9130752,-6.776116 8.9271712,-0.0142 c 4.909945,-0.0078 12.938763,-0.0078 17.841818,0 l 8.914647,0.0142 -8.873754,6.757786 c -4.880564,3.716784 -8.898499,6.766036 -8.928743,6.776117 -0.03024,0.01008 -4.065872,-3.030923 -8.968064,-6.757787 z"
     id="path51" /><path
     transform="scale(10.24)"
     id="path66"
     d="M 22.501415,24.1528 C 19.683632,22.029811 16.347628,19.50108 10.941188,15.390011 l -3.6530371,-2.777778 4.2438311,-0.03415 c 5.447185,-0.04383 21.523387,-0.04369 26.960878,2.32e-4 l 4.198527,0.03392 -3.243568,2.469136 c -6.193318,4.714605 -11.222871,8.539245 -12.821825,9.750142 l -1.607732,1.217545 z"
     style="fill:#4d4d4d;stroke-width:0.0561167" /><path
     transform="scale(10.24)"
     id="path68"
     d="m 6.2721754,25.776279 c 0.010952,-6.417183 0.036982,-11.684673 0.057844,-11.705534 0.020863,-0.02086 0.2894072,0.152514 0.5967656,0.385279 0.3073584,0.232765 0.5743798,0.407663 0.5933809,0.388662 0.019001,-0.019 0.034548,-0.0067 0.034548,0.02734 0,0.06802 -0.1603768,-0.05544 6.5375981,5.032702 2.592593,1.969473 4.73663,3.601625 4.764527,3.627004 0.06117,0.05565 -0.05035,0.205027 -0.813375,1.08948 -0.698708,0.809899 -5.392942,6.163911 -5.597544,6.384284 l -0.144212,0.155328 0.119024,0.119024 c 0.06546,0.06546 0.155169,0.105154 0.199345,0.0882 0.04418,-0.01695 1.555319,-1.327279 3.358093,-2.911837 1.802774,-1.584559 3.516042,-3.08862 3.807262,-3.342358 l 0.52949,-0.461344 0.171523,0.12812 c 0.09434,0.07047 1.128703,0.854853 2.298589,1.743083 1.169886,0.888229 2.154734,1.625302 2.188552,1.63794 0.03382,0.01264 1.105785,-0.772342 2.382151,-1.744399 1.351469,-1.029255 2.347517,-1.750953 2.384961,-1.728051 0.03536,0.02163 1.339549,1.164501 2.898191,2.539717 4.424135,3.903487 4.711104,4.154357 4.752155,4.154357 0.02123,0 0.09498,-0.05297 0.163895,-0.117716 l 0.125304,-0.117718 -1.248654,-1.411463 c -1.459725,-1.650058 -4.978192,-5.704642 -5.18408,-5.973991 -0.121078,-0.158399 -0.130203,-0.196178 -0.06261,-0.259217 0.05961,-0.05559 8.633243,-6.582237 12.074077,-9.191344 L 43.69388,13.982048 V 25.712966 37.443883 H 24.973074 6.2522633 Z"
     style="fill:#4d4d4d;stroke-width:0.0561167" /></svg>
