<?xml version="1.0" encoding="UTF-8" standalone="no"?>
<svg
   xmlns:dc="http://purl.org/dc/elements/1.1/"
   xmlns:cc="http://creativecommons.org/ns#"
   xmlns:rdf="http://www.w3.org/1999/02/22-rdf-syntax-ns#"
   xmlns:svg="http://www.w3.org/2000/svg"
   xmlns="http://www.w3.org/2000/svg"
   xmlns:sodipodi="http://sodipodi.sourceforge.net/DTD/sodipodi-0.dtd"
   xmlns:inkscape="http://www.inkscape.org/namespaces/inkscape"
   inkscape:version="1.0 (4035a4f, 2020-05-01)"
   sodipodi:docname="github.svg"
   xml:space="preserve"
   width="50px"
   viewBox="0 0 512 512"
   version="1.1"
   style="enable-background:new 0 0 512 512;"
   id="Layer_1"
   height="50px"><metadata
     id="metadata21"><rdf:RDF><cc:Work
         rdf:about=""><dc:format>image/svg+xml</dc:format><dc:type
           rdf:resource="http://purl.org/dc/dcmitype/StillImage" /></cc:Work></rdf:RDF></metadata><defs
     id="defs19" /><sodipodi:namedview
     inkscape:current-layer="Layer_1"
     inkscape:window-maximized="0"
     inkscape:window-y="23"
     inkscape:window-x="0"
     inkscape:cy="25"
     inkscape:cx="25"
     inkscape:zoom="13.96"
     showgrid="false"
     id="namedview17"
     inkscape:window-height="1035"
     inkscape:window-width="1920"
     inkscape:pageshadow="2"
     inkscape:pageopacity="0"
     guidetolerance="10"
     gridtolerance="10"
     objecttolerance="10"
     borderopacity="1"
     bordercolor="#666666"
     pagecolor="#ffffff" /><style
     id="style10"
     type="text/css"><![CDATA[
	.st0{fill-rule:evenodd;clip-rule:evenodd;}
]]></style><g
     id="g14"><path
       id="path12"
       d="M256,32C132.3,32,32,134.8,32,261.7c0,101.5,64.2,187.5,153.2,217.9c11.2,2.1,15.3-5,15.3-11.1   c0-5.5-0.2-19.9-0.3-39.1c-62.3,13.9-75.5-30.8-75.5-30.8c-10.2-26.5-24.9-33.6-24.9-33.6c-20.3-14.3,1.5-14,1.5-14   c22.5,1.6,34.3,23.7,34.3,23.7c20,35.1,52.4,25,65.2,19.1c2-14.8,7.8-25,14.2-30.7c-49.7-5.8-102-25.5-102-113.5   c0-25.1,8.7-45.6,23-61.6c-2.3-5.8-10-29.2,2.2-60.8c0,0,18.8-6.2,61.6,23.5c17.9-5.1,37-7.6,56.1-7.7c19,0.1,38.2,2.6,56.1,7.7   c42.8-29.7,61.5-23.5,61.5-23.5c12.2,31.6,4.5,55,2.2,60.8c14.3,16.1,23,36.6,23,61.6c0,88.2-52.4,107.6-102.3,113.3   c8,7.1,15.2,21.1,15.2,42.5c0,30.7-0.3,55.5-0.3,63c0,6.1,4,13.3,15.4,11C415.9,449.1,480,363.1,480,261.7   C480,134.8,379.7,32,256,32z"
       class="st0" /></g><path
     transform="scale(10.24)"
     id="path23"
     d="M 17.26361,46.484852 C 12.811639,44.738128 9.0198754,41.544527 6.4880143,37.409138 2.867113,31.494977 2.1653233,24.126543 4.6000668,17.586651 7.4182206,10.016892 13.984428,4.6096652 21.83119,3.396938 c 1.404746,-0.2171053 4.041119,-0.268461 5.461074,-0.10638 6.014457,0.6865219 11.337999,3.7436681 14.997,8.612317 3.630098,4.830189 5.192282,10.989957 4.302172,16.963674 -1.086561,7.292138 -5.561176,13.543408 -11.992582,16.754261 -1.413144,0.705507 -2.678437,1.191618 -3.100673,1.191243 -0.34825,-2.87e-4 -0.700543,-0.189153 -0.888988,-0.476535 -0.119419,-0.182116 -0.132179,-0.499782 -0.167747,-4.176056 l -0.0385,-3.978946 -0.198629,-0.642773 c -0.228396,-0.739105 -0.531166,-1.34108 -0.878745,-1.747148 -0.133363,-0.155806 -0.242479,-0.302335 -0.242479,-0.325621 0,-0.02329 0.09456,-0.04234 0.210131,-0.04234 0.36946,0 2.092994,-0.345282 2.856149,-0.572184 3.854768,-1.1461 6.037564,-3.740941 6.642796,-7.896754 0.17243,-1.183984 0.211388,-3.11226 0.07999,-3.959429 -0.261334,-1.684959 -0.96793,-3.299336 -1.923799,-4.395344 -0.132921,-0.152409 -0.193128,-0.283709 -0.164236,-0.358166 0.02509,-0.06465 0.1139,-0.391547 0.19736,-0.726432 0.122802,-0.492746 0.1512,-0.820662 0.148885,-1.719198 -0.0031,-1.191052 -0.09266,-1.774599 -0.437176,-2.847421 l -0.189778,-0.590974 -0.540392,5.01e-4 c -1.262884,0.0012 -2.774873,0.582986 -4.787142,1.842095 l -0.736722,0.460978 -0.767576,-0.182621 c -3.05528,-0.726907 -6.404988,-0.715606 -9.511293,0.03209 l -0.643631,0.154923 -0.67882,-0.440103 C 17.874917,13.600294 16.612491,12.971927 15.710013,12.667731 15.085905,12.457365 14.795511,12.40012 14.214385,12.372898 l -0.721145,-0.03378 -0.115949,0.313249 c -0.629554,1.700811 -0.73492,3.989023 -0.248299,5.392282 l 0.09696,0.279607 -0.470562,0.626632 c -0.809292,1.077707 -1.378925,2.406426 -1.617044,3.771894 -0.140619,0.806373 -0.139656,2.838358 0.0019,3.939021 0.594602,4.624357 2.969428,7.313186 7.420248,8.401363 0.45718,0.111776 1.085761,0.239408 1.396848,0.283626 0.987945,0.14043 0.933441,0.09333 0.607716,0.525188 -0.386944,0.513028 -0.692585,1.186002 -0.833612,1.835491 -0.06505,0.299573 -0.14213,0.59303 -0.171293,0.652127 -0.07387,0.149691 -1.003279,0.468446 -1.677715,0.575397 -1.068346,0.169417 -2.142624,-0.03633 -2.973451,-0.569466 -0.496102,-0.318329 -1.202307,-1.087227 -1.57378,-1.713462 -0.854447,-1.440432 -2.230428,-2.375563 -3.4954831,-2.375563 -0.6252074,0 -0.9572024,0.142275 -0.9572024,0.410206 0,0.297586 0.156511,0.476736 0.8893255,1.017961 0.951995,0.703103 1.527134,1.419843 2.058021,2.564712 0.813389,1.75409 0.854563,1.823444 1.41562,2.384501 0.837523,0.837523 1.837638,1.323933 3.102402,1.508866 0.634923,0.09284 1.954774,0.05291 2.659839,-0.08047 0.230396,-0.04358 0.439924,-0.05825 0.465616,-0.03259 0.02569,0.02566 0.04671,0.955955 0.04671,2.067322 0,2.241454 -0.0036,2.26017 -0.487416,2.555189 -0.376885,0.229802 -0.827415,0.182087 -1.769031,-0.187354 z"
     style="fill:#4d4d4d;stroke-width:0.0716332" /></svg>
