<?xml version="1.0" encoding="UTF-8" standalone="no"?>
<svg
   xmlns:dc="http://purl.org/dc/elements/1.1/"
   xmlns:cc="http://creativecommons.org/ns#"
   xmlns:rdf="http://www.w3.org/1999/02/22-rdf-syntax-ns#"
   xmlns:svg="http://www.w3.org/2000/svg"
   xmlns="http://www.w3.org/2000/svg"
   xmlns:sodipodi="http://sodipodi.sourceforge.net/DTD/sodipodi-0.dtd"
   xmlns:inkscape="http://www.inkscape.org/namespaces/inkscape"
   height="50px"
   id="Layer_1"
   style="enable-background:new 0 0 512 512;"
   version="1.1"
   viewBox="0 0 512 512"
   width="50px"
   xml:space="preserve"
   sodipodi:docname="linkedin.svg"
   inkscape:version="1.0 (4035a4f, 2020-05-01)"><metadata
     id="metadata19"><rdf:RDF><cc:Work
         rdf:about=""><dc:format>image/svg+xml</dc:format><dc:type
           rdf:resource="http://purl.org/dc/dcmitype/StillImage" /></cc:Work></rdf:RDF></metadata><defs
     id="defs17" /><sodipodi:namedview
     inkscape:document-rotation="0"
     pagecolor="#ffffff"
     bordercolor="#666666"
     borderopacity="1"
     objecttolerance="10"
     gridtolerance="10"
     guidetolerance="10"
     inkscape:pageopacity="0"
     inkscape:pageshadow="2"
     inkscape:window-width="1920"
     inkscape:window-height="1035"
     id="namedview15"
     showgrid="false"
     inkscape:zoom="13.96"
     inkscape:cx="25"
     inkscape:cy="25"
     inkscape:window-x="0"
     inkscape:window-y="23"
     inkscape:window-maximized="0"
     inkscape:current-layer="Layer_1" /><g
     id="g12"><path
       d="M417.2,64H96.8C79.3,64,64,76.6,64,93.9v321.1c0,17.4,15.3,32.9,32.8,32.9h320.3c17.6,0,30.8-15.6,30.8-32.9V93.9   C448,76.6,434.7,64,417.2,64z M183,384h-55V213h55V384z M157.4,187H157c-17.6,0-29-13.1-29-29.5c0-16.7,11.7-29.5,29.7-29.5   c18,0,29,12.7,29.4,29.5C187.1,173.9,175.7,187,157.4,187z M384,384h-55v-93.5c0-22.4-8-37.7-27.9-37.7   c-15.2,0-24.2,10.3-28.2,20.3c-1.5,3.6-1.9,8.5-1.9,13.5V384h-55V213h55v23.8c8-11.4,20.5-27.8,49.6-27.8   c36.1,0,63.4,23.8,63.4,75.1V384z"
       id="path10" /></g><path
     style="fill:#333333;stroke-width:0.0716332"
     d="M 8.9674777,43.652557 C 8.026128,43.494602 7.0718485,42.74989 6.6078944,41.81116 L 6.3395415,41.268195 6.3201762,25.003725 C 6.2986225,6.9012606 6.2573843,8.4207257 6.7916025,7.6335216 7.1259612,7.140823 7.7412683,6.6855531 8.3630835,6.4707723 L 8.8467049,6.3037249 H 25.071633 c 15.116271,0 16.251977,0.00838 16.620772,0.122694 0.858211,0.2660078 1.584925,0.9865861 1.857614,1.8419313 L 43.700147,8.739255 43.680302,25 l -0.01984,16.260745 -0.162815,0.402521 c -0.348923,0.862623 -1.012413,1.545119 -1.827213,1.879555 l -0.373868,0.153454 -15.974212,0.01008 c -9.07686,0.0057 -16.1385739,-0.0175 -16.3548723,-0.0538 z M 17.908309,29.118911 V 20.737822 H 15.186246 12.464183 V 29.118911 37.5 h 2.722063 2.722063 z m 8.611677,3.133954 0.02013,-5.247134 0.230305,-0.486218 c 0.28977,-0.611762 0.889491,-1.249437 1.434824,-1.52563 0.381215,-0.193072 0.471527,-0.208758 1.2002,-0.208461 0.691853,2.86e-4 0.831285,0.02176 1.14311,0.17606 0.48768,0.241325 0.87269,0.647928 1.125921,1.18907 0.395337,0.844815 0.411978,1.104058 0.414716,6.46048 L 32.091691,37.5 h 2.722063 2.722063 l -0.0014,-5.282951 c -0.0011,-4.17373 -0.02296,-5.444904 -0.104068,-6.054295 -0.471025,-3.538757 -2.494544,-5.583209 -5.702217,-5.761204 -2.041152,-0.113264 -3.599631,0.546398 -4.791668,2.028186 l -0.432169,0.537216 v -1.114564 -1.114566 h -2.72206 -2.722063 V 29.118911 37.5 h 2.719842 2.719843 z M 16.060228,18.222354 c 1.885329,-0.397022 2.781569,-2.429919 1.881584,-4.267911 -0.286555,-0.585218 -0.651783,-0.944401 -1.251268,-1.230561 -0.360234,-0.171956 -0.470684,-0.188065 -1.289398,-0.188065 -0.821507,0 -0.929224,0.01585 -1.305019,0.191981 -1.496776,0.701539 -2.070927,2.579287 -1.269183,4.150835 0.538446,1.055441 1.905112,1.623414 3.233284,1.343721 z"
     id="path53"
     transform="scale(10.24)" /><path
     transform="scale(10.24)"
     id="path70"
     d="M 24.928367,43.657076 C 16.044054,43.635517 8.7106017,43.603282 8.6318052,43.585443 8.5530086,43.567604 8.4724212,43.536077 8.4527221,43.515382 8.4330229,43.494688 8.228208,43.365748 7.9975777,43.228849 7.4455938,42.9012 6.8963996,42.29956 6.6081662,41.706755 L 6.3753582,41.227943 6.3759018,25.270132 C 6.3762382,15.394639 6.403009,9.0812546 6.4461387,8.7060861 6.5062189,8.1834715 6.5526542,8.046387 6.7827884,7.7122426 7.0917537,7.2636386 7.5961534,6.8602957 8.2042899,6.5755395 L 8.6318052,6.3753582 H 25.071633 41.511461 l 0.418044,0.1958452 c 0.78037,0.3655876 1.263628,0.874565 1.576006,1.6598802 0.144502,0.3632782 0.145058,0.4378721 0.124721,16.7330994 l -0.02043,16.368195 -0.253724,0.522053 c -0.153344,0.315517 -0.405859,0.676638 -0.638269,0.912792 -0.36081,0.366622 -1.05235,0.786858 -1.457066,0.885433 -0.0985,0.02399 -7.448066,0.02598 -16.332378,0.0044 z M 17.908309,29.118911 V 20.737822 H 15.186246 12.464183 V 29.118911 37.5 h 2.722063 2.722063 z m 8.620277,7.037966 c 0.02582,-0.738718 0.04703,-3.102838 0.04714,-5.253602 l 2.14e-4,-3.910478 0.213763,-0.427778 c 0.309593,-0.619548 0.917283,-1.259786 1.446979,-1.524479 0.401367,-0.200566 0.500871,-0.219623 1.146697,-0.219623 0.753195,0 1.024714,0.07297 1.504612,0.40437 0.347598,0.240037 0.726787,0.807628 0.926247,1.386461 0.155339,0.450791 0.162091,0.586497 0.212056,4.262178 0.02839,2.088108 0.05471,4.433202 0.05851,5.211318 L 32.091691,37.5 h 2.724385 2.724385 l -0.0242,-5.569484 c -0.01331,-3.063217 -0.04713,-5.730659 -0.07516,-5.927651 -0.08328,-0.585296 -0.335577,-1.526472 -0.55128,-2.056515 -0.330061,-0.811057 -0.643005,-1.273046 -1.323922,-1.954468 -0.735928,-0.736473 -1.27845,-1.060524 -2.292264,-1.369179 -0.593,-0.180539 -0.745225,-0.196718 -1.898281,-0.201755 -1.124239,-0.0049 -1.308753,0.01185 -1.788306,0.162434 -0.649856,0.204062 -1.321115,0.535286 -1.551297,0.765468 -0.09373,0.09374 -0.170425,0.149062 -0.170425,0.122951 0,-0.07414 -0.623434,0.546758 -1.010965,1.006847 l -0.350067,0.415609 V 21.81604 20.737822 H 23.782235 21.060172 V 29.118911 37.5 h 2.710737 2.710737 z M 16.243839,18.200945 c 1.384071,-0.371141 2.280871,-1.780084 2.041001,-3.206567 -0.121978,-0.725387 -0.350605,-1.236701 -0.746816,-1.670219 -0.198095,-0.216747 -0.385851,-0.378215 -0.417237,-0.358817 -0.03139,0.0194 -0.07434,-0.0098 -0.09546,-0.06478 -0.02112,-0.05503 -0.225961,-0.170474 -0.455214,-0.256552 -0.364791,-0.13697 -0.528594,-0.153403 -1.312237,-0.131646 -0.821046,0.0228 -0.925456,0.04146 -1.257098,0.224699 -0.672365,0.371498 -1.354501,1.196224 -1.42547,1.723444 -0.0113,0.08397 -0.04465,0.209792 -0.07411,0.279605 -0.02946,0.06981 -0.04042,0.440515 -0.02437,0.823782 0.02384,0.569278 0.06536,0.775533 0.226803,1.126649 0.207942,0.45226 0.637023,0.946531 1.038222,1.195962 0.605825,0.376648 1.73893,0.519052 2.501979,0.314439 z"
     style="fill:#4d4d4d;stroke-width:0.0716332" /></svg>
