<?xml version="1.0" encoding="UTF-8" standalone="no"?>
<svg
   xmlns:dc="http://purl.org/dc/elements/1.1/"
   xmlns:cc="http://creativecommons.org/ns#"
   xmlns:rdf="http://www.w3.org/1999/02/22-rdf-syntax-ns#"
   xmlns:svg="http://www.w3.org/2000/svg"
   xmlns="http://www.w3.org/2000/svg"
   xmlns:sodipodi="http://sodipodi.sourceforge.net/DTD/sodipodi-0.dtd"
   xmlns:inkscape="http://www.inkscape.org/namespaces/inkscape"
   inkscape:version="1.0 (4035a4f, 2020-05-01)"
   sodipodi:docname="witchandmoon.svg"
   id="svg68"
   preserveAspectRatio="xMidYMid meet"
   viewBox="0 0 375.62769 291.74976"
   height="291.74976pt"
   width="375.62769pt"
   version="1.0">
  <defs
     id="defs72" />
  <sodipodi:namedview
     inkscape:current-layer="svg68"
     inkscape:window-maximized="0"
     inkscape:window-y="23"
     inkscape:window-x="0"
     inkscape:cy="662.4496"
     inkscape:cx="853.20104"
     inkscape:zoom="0.61699219"
     showgrid="false"
     id="namedview70"
     inkscape:window-height="1035"
     inkscape:window-width="1857"
     inkscape:pageshadow="2"
     inkscape:pageopacity="0"
     guidetolerance="10"
     gridtolerance="10"
     objecttolerance="10"
     borderopacity="1"
     bordercolor="#666666"
     pagecolor="#ffffff" />
  <metadata
     id="metadata60">
Created by potrace 1.15, written by Peter Selinger 2001-2017
<rdf:RDF>
  <cc:Work
     rdf:about="">
    <dc:format>image/svg+xml</dc:format>
    <dc:type
       rdf:resource="http://purl.org/dc/dcmitype/StillImage" />
    <dc:title></dc:title>
  </cc:Work>
</rdf:RDF>
</metadata>
  <g
     id="g66"
     stroke="none"
     fill="#000000"
     transform="matrix(0.02937741,0,0,-0.02937741,-0.02914783,291.96364)">
    <path
       id="path62"
       d="m 10840,9933 c -539,-56 -993,-275 -1385,-668 -134,-133 -219,-238 -332,-409 -627,-942 -643,-2265 -40,-3231 534,-855 1444,-1282 2345,-1100 427,87 806,293 1132,615 103,101 234,249 227,256 -1,1 -42,-17 -92,-41 -244,-116 -481,-173 -760,-182 -360,-12 -658,57 -975,224 -632,333 -1094,1010 -1224,1793 -27,161 -36,278 -36,470 0,455 96,868 296,1264 194,383 521,742 861,943 129,76 125,72 68,71 -27,-1 -66,-3 -85,-5 z" />
    <path
       id="path64"
       d="m 6115,8001 c -3,-5 11,-31 30,-57 86,-120 149,-220 172,-272 30,-68 67,-209 84,-317 19,-119 16,-380 -6,-500 -20,-116 -60,-251 -78,-262 -7,-4 -142,-12 -302,-18 -287,-11 -342,-19 -352,-51 -6,-18 62,-88 119,-121 75,-46 190,-73 336,-80 67,-3 125,-9 127,-13 7,-11 -59,-54 -137,-90 -84,-39 -169,-47 -318,-30 -61,7 -114,10 -117,6 -17,-16 76,-156 140,-213 34,-29 90,-53 128,-53 8,0 24,-6 35,-14 18,-14 18,-15 -11,-26 -16,-7 -56,-16 -87,-20 -65,-9 -70,-12 -236,-104 -177,-99 -257,-122 -329,-95 -15,5 -66,50 -113,98 -65,67 -102,95 -153,120 -78,37 -245,77 -361,87 -74,6 -95,3 -246,-36 -207,-54 -349,-64 -445,-32 -108,36 -218,87 -323,151 -209,128 -331,171 -479,171 -106,0 -179,-17 -293,-70 -111,-51 -121,-53 -172,-40 -35,10 -62,31 -148,120 -58,60 -118,114 -133,119 -49,19 -101,12 -166,-20 -79,-40 -227,-178 -252,-236 -10,-23 -36,-124 -59,-225 -132,-580 -198,-780 -314,-943 -55,-76 -94,-111 -165,-143 -46,-21 -64,-24 -131,-20 l -77,5 -57,56 c -123,123 -201,127 -256,11 -32,-69 -56,-190 -95,-491 -71,-535 -131,-736 -257,-869 -74,-79 -81,-81 -355,-119 -163,-23 -213,-50 -213,-116 0,-74 131,-260 315,-445 90,-91 110,-106 205,-152 137,-67 212,-86 316,-79 94,5 161,33 240,99 88,73 101,91 351,478 126,194 248,298 376,318 91,14 209,-9 317,-63 41,-21 49,-22 77,-10 84,35 85,114 9,381 -66,234 -80,310 -74,411 11,186 120,266 385,283 214,14 222,22 259,282 8,55 38,88 79,88 42,0 122,-31 196,-76 55,-33 57,-34 102,-20 68,20 110,58 217,197 141,181 195,221 300,220 73,0 124,-20 234,-93 74,-49 96,-58 133,-58 77,0 130,40 258,193 26,31 58,60 71,63 13,3 55,-3 93,-15 114,-35 221,-148 221,-234 0,-40 -44,-116 -136,-234 -141,-180 -339,-351 -555,-479 -57,-34 -162,-96 -234,-138 -259,-152 -380,-285 -445,-489 -26,-79 -39,-243 -28,-337 29,-246 227,-575 526,-877 58,-59 77,-84 69,-91 -28,-23 -972,-297 -1187,-344 -262,-59 -695,-2 -1162,153 -253,84 -882,323 -1223,466 -175,73 -327,133 -337,133 -23,0 -23,-8 2,-70 28,-72 54,-102 126,-152 35,-23 64,-48 64,-55 0,-6 -22,-19 -50,-28 -48,-16 -50,-18 -50,-55 0,-27 22,-81 80,-196 68,-138 91,-173 170,-262 49,-57 90,-107 90,-112 0,-13 -74,-50 -100,-50 -44,0 -28,-25 143,-216 89,-99 168,-215 221,-321 33,-66 36,-78 36,-160 0,-128 10,-155 78,-208 81,-64 124,-71 334,-56 195,14 315,40 583,130 296,98 336,120 658,359 273,202 531,376 612,413 77,35 342,111 590,169 99,23 253,59 342,81 88,21 170,39 181,39 29,0 69,-43 174,-188 275,-381 474,-609 573,-657 62,-31 155,-43 273,-35 46,3 86,3 88,1 2,-2 4,-42 4,-88 v -83 h -35 c -47,0 -76,-15 -104,-55 -43,-63 -51,-101 -44,-215 4,-78 1,-126 -11,-184 -21,-104 -21,-192 0,-200 36,-14 43,-5 69,81 54,177 102,236 148,185 22,-24 21,-65 -4,-193 -27,-135 -24,-142 96,-227 144,-101 166,-114 239,-139 108,-37 126,-35 153,12 46,81 26,118 -114,215 -88,60 -95,74 -100,195 -3,83 2,126 27,248 49,238 42,265 -70,269 l -64,3 3,194 c 4,263 24,335 118,426 80,76 245,149 420,185 112,23 135,2 137,-119 l 1,-76 -36,3 c -47,4 -95,-36 -135,-112 l -28,-54 12,-174 c 7,-112 8,-202 2,-256 -10,-96 -7,-110 27,-118 36,-9 52,13 64,86 11,67 44,140 64,140 19,0 51,-41 83,-105 62,-122 154,-192 289,-220 83,-17 309,-30 352,-20 l 31,7 v 72 c 0,98 -8,104 -149,122 -130,16 -165,29 -224,83 -64,59 -89,124 -95,242 -4,82 -2,102 17,143 35,79 28,94 -51,110 -33,7 -34,16 -18,146 22,179 17,176 270,164 378,-17 371,-23 262,204 -113,237 -152,366 -152,506 0,88 20,159 60,214 26,36 35,42 68,42 62,0 100,-36 211,-199 119,-173 200,-260 280,-297 102,-49 159,-35 217,53 72,109 108,251 123,489 9,147 19,180 63,220 29,27 87,56 158,79 30,10 79,29 109,42 94,42 320,123 433,156 82,24 113,29 126,21 9,-6 32,-39 51,-72 37,-67 51,-74 75,-40 14,20 19,21 47,11 26,-10 36,-9 70,9 24,12 42,30 45,44 4,17 13,24 30,24 17,0 24,6 24,20 0,13 11,25 34,34 18,8 36,18 40,24 3,6 -7,39 -24,74 -16,34 -30,70 -30,80 0,39 59,65 412,182 194,64 368,125 386,136 37,23 39,39 12,98 -14,30 -25,42 -41,42 -22,0 -134,-34 -576,-176 -317,-102 -329,-103 -452,-42 l -85,43 -111,-2 c -109,-1 -182,-14 -367,-64 -122,-32 -132,-28 -185,84 -51,105 -50,104 -262,147 -213,43 -652,154 -734,186 -154,60 -278,184 -345,347 -51,121 -58,157 -42,221 15,64 9,175 -13,228 -8,19 -36,59 -62,88 -42,47 -46,57 -42,87 14,81 119,236 195,284 80,51 162,33 265,-60 16,-15 59,-78 97,-141 83,-140 123,-180 181,-180 33,0 96,69 105,114 6,33 1,51 -32,117 l -38,79 22,39 c 12,21 22,46 22,55 0,22 -32,20 -64,-5 l -26,-20 -30,21 c -81,58 -80,180 2,180 14,0 42,-11 62,-25 39,-26 56,-25 56,3 1,9 16,42 34,72 46,77 61,74 112,-23 54,-104 64,-113 100,-95 24,11 30,20 32,56 6,77 -57,237 -121,310 -46,52 -77,93 -77,103 0,4 20,17 45,28 86,38 85,96 -6,183 -32,32 -59,62 -59,66 0,11 30,24 165,74 60,22 137,54 170,71 187,94 315,235 222,245 -15,2 -100,-15 -190,-37 -186,-46 -298,-64 -377,-59 l -55,3 -47,140 c -201,593 -428,906 -808,1113 -113,62 -229,112 -235,103 z M 5999,3964 c 64,-19 201,-133 411,-343 206,-206 306,-347 317,-445 7,-55 -8,-81 -58,-107 -48,-24 -95,-28 -114,-8 -8,8 -32,65 -54,128 -106,301 -299,482 -516,481 -27,0 -81,-7 -120,-15 -86,-19 -159,-7 -200,31 -25,23 -27,31 -23,79 13,152 188,250 357,199 z" />
  </g>
</svg>
